<mxfile host="app.diagrams.net" agent="Mozilla/5.0 (Windows NT 10.0; Win64; x64) AppleWebKit/537.36 (KHTML, like Gecko) Chrome/134.0.0.0 Safari/537.36" version="26.1.0">
  <diagram name="Page-1" id="pVlX9A7cEhCY-azg6fj7">
    <mxGraphModel dx="1034" dy="434" grid="1" gridSize="10" guides="1" tooltips="1" connect="1" arrows="1" fold="1" page="1" pageScale="1" pageWidth="850" pageHeight="1100" math="0" shadow="0">
      <root>
        <mxCell id="0" />
        <mxCell id="1" parent="0" />
        <mxCell id="X2ADbwSmmlcd69X4KKIL-9" value="" style="rounded=1;whiteSpace=wrap;html=1;" vertex="1" parent="1">
          <mxGeometry x="200" y="180" width="170" height="140" as="geometry" />
        </mxCell>
        <mxCell id="X2ADbwSmmlcd69X4KKIL-1" value="User" style="shape=umlActor;verticalLabelPosition=bottom;verticalAlign=top;html=1;outlineConnect=0;" vertex="1" parent="1">
          <mxGeometry x="40" y="230" width="30" height="60" as="geometry" />
        </mxCell>
        <mxCell id="X2ADbwSmmlcd69X4KKIL-2" value="Query" style="shape=flexArrow;endArrow=classic;html=1;rounded=0;" edge="1" parent="1">
          <mxGeometry x="-0.2727" y="20" width="50" height="50" relative="1" as="geometry">
            <mxPoint x="80" y="260" as="sourcePoint" />
            <mxPoint x="190" y="260" as="targetPoint" />
            <mxPoint as="offset" />
          </mxGeometry>
        </mxCell>
        <mxCell id="X2ADbwSmmlcd69X4KKIL-3" value="" style="image;html=1;image=img/lib/clip_art/computers/Database_128x128.png" vertex="1" parent="1">
          <mxGeometry x="260" y="260" width="30" height="39.4" as="geometry" />
        </mxCell>
        <mxCell id="X2ADbwSmmlcd69X4KKIL-4" value="Retrieval external k&lt;span style=&quot;background-color: transparent; color: light-dark(rgb(0, 0, 0), rgb(255, 255, 255));&quot;&gt;nowledge&lt;/span&gt;" style="text;html=1;align=center;verticalAlign=middle;whiteSpace=wrap;rounded=0;" vertex="1" parent="1">
          <mxGeometry x="200" y="320" width="170" height="30" as="geometry" />
        </mxCell>
        <mxCell id="X2ADbwSmmlcd69X4KKIL-6" value="" style="sketch=0;pointerEvents=1;shadow=0;dashed=0;html=1;strokeColor=none;fillColor=#505050;labelPosition=center;verticalLabelPosition=bottom;verticalAlign=top;outlineConnect=0;align=center;shape=mxgraph.office.concepts.search;" vertex="1" parent="1">
          <mxGeometry x="251" y="190" width="49" height="49" as="geometry" />
        </mxCell>
        <mxCell id="X2ADbwSmmlcd69X4KKIL-7" value="" style="verticalLabelPosition=bottom;html=1;verticalAlign=top;strokeWidth=1;align=center;outlineConnect=0;dashed=0;outlineConnect=0;shape=mxgraph.aws3d.file;aspect=fixed;strokeColor=#292929;" vertex="1" parent="1">
          <mxGeometry x="230" y="259.4" width="17.45" height="40" as="geometry" />
        </mxCell>
        <mxCell id="X2ADbwSmmlcd69X4KKIL-8" value="" style="sketch=0;outlineConnect=0;fontColor=#232F3E;gradientColor=none;fillColor=#7AA116;strokeColor=none;dashed=0;verticalLabelPosition=bottom;verticalAlign=top;align=center;html=1;fontSize=12;fontStyle=0;aspect=fixed;pointerEvents=1;shape=mxgraph.aws4.file_cache_s3_linked_datasets;" vertex="1" parent="1">
          <mxGeometry x="300" y="260" width="40" height="40" as="geometry" />
        </mxCell>
        <mxCell id="X2ADbwSmmlcd69X4KKIL-10" value="" style="rounded=1;whiteSpace=wrap;html=1;" vertex="1" parent="1">
          <mxGeometry x="420" y="180" width="170" height="140" as="geometry" />
        </mxCell>
        <mxCell id="X2ADbwSmmlcd69X4KKIL-11" value="Augmented" style="text;html=1;align=center;verticalAlign=middle;whiteSpace=wrap;rounded=0;" vertex="1" parent="1">
          <mxGeometry x="420" y="330" width="170" height="30" as="geometry" />
        </mxCell>
        <mxCell id="X2ADbwSmmlcd69X4KKIL-12" value="Prompt" style="shape=callout;whiteSpace=wrap;html=1;perimeter=calloutPerimeter;position2=0.33;" vertex="1" parent="1">
          <mxGeometry x="440" y="200" width="60" height="70" as="geometry" />
        </mxCell>
        <mxCell id="X2ADbwSmmlcd69X4KKIL-13" value="" style="sketch=0;aspect=fixed;pointerEvents=1;shadow=0;dashed=0;html=1;strokeColor=none;labelPosition=center;verticalLabelPosition=bottom;verticalAlign=top;align=center;fillColor=#00188D;shape=mxgraph.mscae.enterprise.document" vertex="1" parent="1">
          <mxGeometry x="530" y="260" width="40" height="50" as="geometry" />
        </mxCell>
        <mxCell id="X2ADbwSmmlcd69X4KKIL-14" value="Prompt&lt;br&gt;+&lt;br&gt;Documents&lt;div&gt;&lt;br/&gt;&lt;/div&gt;" style="shape=flexArrow;endArrow=classic;html=1;rounded=0;" edge="1" parent="1">
          <mxGeometry x="-0.0909" y="40" width="50" height="50" relative="1" as="geometry">
            <mxPoint x="590" y="249.5" as="sourcePoint" />
            <mxPoint x="700" y="249.5" as="targetPoint" />
            <mxPoint y="1" as="offset" />
          </mxGeometry>
        </mxCell>
        <mxCell id="X2ADbwSmmlcd69X4KKIL-16" value="" style="shape=flexArrow;endArrow=classic;html=1;rounded=0;" edge="1" parent="1">
          <mxGeometry x="-0.2727" y="20" width="50" height="50" relative="1" as="geometry">
            <mxPoint x="370" y="257.8" as="sourcePoint" />
            <mxPoint x="420" y="258" as="targetPoint" />
            <mxPoint as="offset" />
          </mxGeometry>
        </mxCell>
        <mxCell id="X2ADbwSmmlcd69X4KKIL-17" value="AI Model" style="sketch=0;points=[[0,0,0],[0.25,0,0],[0.5,0,0],[0.75,0,0],[1,0,0],[0,1,0],[0.25,1,0],[0.5,1,0],[0.75,1,0],[1,1,0],[0,0.25,0],[0,0.5,0],[0,0.75,0],[1,0.25,0],[1,0.5,0],[1,0.75,0]];outlineConnect=0;fontColor=#232F3E;fillColor=#01A88D;strokeColor=#ffffff;dashed=0;verticalLabelPosition=bottom;verticalAlign=top;align=center;html=1;fontSize=12;fontStyle=0;aspect=fixed;shape=mxgraph.aws4.resourceIcon;resIcon=mxgraph.aws4.augmented_ai;" vertex="1" parent="1">
          <mxGeometry x="720" y="211" width="89" height="89" as="geometry" />
        </mxCell>
        <mxCell id="X2ADbwSmmlcd69X4KKIL-18" value="" style="edgeStyle=elbowEdgeStyle;elbow=vertical;endArrow=classic;html=1;curved=0;rounded=0;endSize=8;startSize=8;" edge="1" parent="1">
          <mxGeometry width="50" height="50" relative="1" as="geometry">
            <mxPoint x="765" y="320" as="sourcePoint" />
            <mxPoint x="60" y="320" as="targetPoint" />
            <Array as="points">
              <mxPoint x="420" y="410" />
            </Array>
          </mxGeometry>
        </mxCell>
        <mxCell id="X2ADbwSmmlcd69X4KKIL-19" value="Response" style="text;html=1;align=center;verticalAlign=middle;whiteSpace=wrap;rounded=0;" vertex="1" parent="1">
          <mxGeometry x="370" y="380" width="60" height="30" as="geometry" />
        </mxCell>
      </root>
    </mxGraphModel>
  </diagram>
</mxfile>
